# xmcd
#
# Track frame offsets: 
#        183
#        28595
#        44890
#        51163
#        57053
#        66108
#        71773
#        83270
#        87470
#        92615
#        127530
#        140685
#        148395
#        155678
#        163283
#        173515
#        177765
#        188883
#        192773
#        196813
#
# Disc length: 2894 seconds
#
# Revision: 3
# Processed by: cddbd v1.5.2PL0 Copyright (c) Steve Scherf et al.
# Submitted via: ExactAudioCopy v1.0b3
#
DISCID=180b4c14
DTITLE=Couperin, Francois - Les Nations. La Françoise  and L'Espagnole (
DTITLE=Goebel, Musica Antiqua Köln)
DYEAR=1983
DGENRE=Concerto
TTITLE0=La Françoise - 1. Sonata. Gravement - Gayement - Gravement - V
TTITLE0=ivement - Air ...
TTITLE1=La Françoise - 2. Allemande. Sans lenteur
TTITLE2=La Françoise - 3. Première Courante. Noblement
TTITLE3=La Françoise - 4. Seconde Courante. Un peu plus vite
TTITLE4=La Françoise - 5. Sarabande. Gravement
TTITLE5=La Françoise - 6. Gigue. Gayement
TTITLE6=La Françoise - 7. Chaconne ou Passacaille. Modérément
TTITLE7=La Françoise - 8. Gavotte
TTITLE8=La Françoise - 9. Menuet
TTITLE9=L'Espagnole - 1. Sonata- Gravement et mesuré - Vivement - Affe
TTITLE9=cteusement - ...
TTITLE10=L'Espagnole - 2. Allemande. Gracieusement
TTITLE11=L'Espagnole - 3. Courante. Noblement
TTITLE12=L'Espagnole - 4. Seconde Courante. Un peu plus vivement
TTITLE13=L'Espagnole - 5. Sarabande. Gravement
TTITLE14=L'Espagnole - 6. Gigue lourée. Modérément
TTITLE15=L'Espagnole - 7. Gavotte. Tendrement, sans lenteur
TTITLE16=L'Espagnole - 8. Rondeau. Affecteusement
TTITLE17=L'Espagnole - 9. Bourrée. Gayement
TTITLE18=L'Espagnole - 10. Double de la Bourrée précédente
TTITLE19=L'Espagnole - 11. Passacaille. Noblement et marqué
EXTD=
EXTT0=
EXTT1=
EXTT2=
EXTT3=
EXTT4=
EXTT5=
EXTT6=
EXTT7=
EXTT8=
EXTT9=
EXTT10=
EXTT11=
EXTT12=
EXTT13=
EXTT14=
EXTT15=
EXTT16=
EXTT17=
EXTT18=
EXTT19=
PLAYORDER=
